<svg width="40" height="40" fill="#a30515" version="1.1" viewBox="0 0 1200 1200" xmlns="http://www.w3.org/2000/svg">
 <path d="m0 389.46h22.793v79.289h-22.793z"/>
 <path d="m22.793 406.33h55.688v5.9062h-55.688z"/>
 <path d="m22.793 424.91h55.688v5.8828h-55.688z"/>
 <path d="m22.793 446.01h55.688v5.8945h-55.688z"/>
 <path d="m78.48 389.46h22.781v79.289h-22.781z"/>
 <path d="m101.26 406.33h55.699v5.9062h-55.699z"/>
 <path d="m101.26 424.91h55.699v5.8828h-55.699z"/>
 <path d="m101.26 446.01h55.699v5.8945h-55.699z"/>
 <path d="m156.96 389.46h22.781v79.289h-22.781z"/>
 <path d="m179.74 406.33h55.699v5.9062h-55.699z"/>
 <path d="m179.74 424.91h55.699v5.8828h-55.699z"/>
 <path d="m179.74 446.01h55.699v5.8945h-55.699z"/>
 <path d="m235.44 389.46h22.793v79.289h-22.793z"/>
 <path d="m258.23 406.33h55.699v5.9062h-55.699z"/>
 <path d="m258.23 424.91h55.699v5.8828h-55.699z"/>
 <path d="m258.23 446.01h55.699v5.8945h-55.699z"/>
 <path d="m313.93 389.46h22.781v79.289h-22.781z"/>
 <path d="m336.71 406.33h55.699v5.9062h-55.699z"/>
 <path d="m336.71 424.91h55.699v5.8828h-55.699z"/>
 <path d="m336.71 446.01h55.699v5.8945h-55.699z"/>
 <path d="m392.41 389.46h22.781v79.289h-22.781z"/>
 <path d="m415.2 406.33h55.699v5.9062h-55.699z"/>
 <path d="m415.2 424.91h55.699v5.8828h-55.699z"/>
 <path d="m415.2 446.01h55.699v5.8945h-55.699z"/>
 <path d="m470.89 389.46h22.781v79.289h-22.781z"/>
 <path d="m493.68 406.33h55.699v5.9062h-55.699z"/>
 <path d="m493.68 424.91h55.699v5.8828h-55.699z"/>
 <path d="m493.68 446.01h55.699v5.8945h-55.699z"/>
 <path d="m549.38 389.46h22.77v79.289h-22.77z"/>
 <path d="m572.14 406.33h55.711v5.9062h-55.711z"/>
 <path d="m572.14 424.91h55.711v5.8828h-55.711z"/>
 <path d="m572.14 446.01h55.711v5.8945h-55.711z"/>
 <path d="m627.86 389.46h22.781v79.289h-22.781z"/>
 <path d="m650.64 406.33h55.688v5.9062h-55.688z"/>
 <path d="m650.64 424.91h55.688v5.8828h-55.688z"/>
 <path d="m650.64 446.01h55.688v5.8945h-55.688z"/>
 <path d="m706.32 389.46h22.793v79.289h-22.793z"/>
 <path d="m729.12 406.33h55.699v5.9062h-55.699z"/>
 <path d="m729.12 424.91h55.699v5.8828h-55.699z"/>
 <path d="m729.12 446.01h55.699v5.8945h-55.699z"/>
 <path d="m784.82 389.46h22.781v79.289h-22.781z"/>
 <path d="m807.6 406.33h55.688v5.9062h-55.688z"/>
 <path d="m807.6 424.91h55.688v5.8828h-55.688z"/>
 <path d="m807.6 446.01h55.688v5.8945h-55.688z"/>
 <path d="m863.29 389.46h22.781v79.289h-22.781z"/>
 <path d="m886.07 406.33h55.699v5.9062h-55.699z"/>
 <path d="m886.07 424.91h55.699v5.8828h-55.699z"/>
 <path d="m886.07 446.01h55.699v5.8945h-55.699z"/>
 <path d="m941.77 389.46h22.793v79.289h-22.793z"/>
 <path d="m964.56 406.33h55.688v5.9062h-55.688z"/>
 <path d="m964.56 424.91h55.688v5.8828h-55.688z"/>
 <path d="m964.56 446.01h55.688v5.8945h-55.688z"/>
 <path d="m1020.2 389.46h22.793v79.289h-22.793z"/>
 <path d="m1043 406.33h55.699v5.9062h-55.699z"/>
 <path d="m1043 424.91h55.699v5.8828h-55.699z"/>
 <path d="m1043 446.01h55.699v5.8945h-55.699z"/>
 <path d="m1098.7 389.46h22.781v79.289h-22.781z"/>
 <path d="m1177.2 389.46h22.781v79.289h-22.781z"/>
 <path d="m1121.5 406.33h55.699v5.9062h-55.699z"/>
 <path d="m1121.5 424.91h55.699v5.8828h-55.699z"/>
 <path d="m1121.5 446.01h55.699v5.8945h-55.699z"/>
 <path d="m1146.8 468.75h-1146.8v341.78h53.168s273.41-273.43 546.83-273.43 546.84 273.43 546.84 273.43h53.156v-341.78z"/>
</svg>